<svg width="16" height="16" viewBox="0 0 16 16" fill="none" xmlns="http://www.w3.org/2000/svg">
<g clip-path="url(#clip0_317_2)">
<path d="M16 0H0V16H16V0Z" fill="#1D002F"/>
<path d="M6.88337 6.90909H4.75304C4.73588 6.90909 4.72729 6.89888 4.72729 6.87847L4.73372 2.56995C4.73372 2.55362 4.7423 2.54546 4.75946 2.54546H6.87694C6.89411 2.54546 6.90269 2.55566 6.90269 2.57608V3.27732C6.90269 3.29365 6.89411 3.30182 6.87694 3.30182H5.52536V4.28173H6.87694C6.89411 4.28173 6.90269 4.2899 6.90269 4.30622L6.90911 5.01664C6.90911 5.03299 6.90053 5.04116 6.88337 5.04116H5.52536V6.13742H6.88337C6.90053 6.13742 6.90911 6.14762 6.90911 6.16805V6.8846C6.90911 6.90092 6.90053 6.90909 6.88337 6.90909Z" fill="#FCFCFF"/>
<path d="M9.99526 7.09091C9.76009 7.09091 9.54823 7.03188 9.35969 6.91379C9.16901 6.79573 9.01541 6.63685 8.89891 6.43721C8.78449 6.23756 8.72729 6.01429 8.72729 5.76741V3.67748C8.72729 3.43704 8.78556 3.21806 8.90207 3.02056C9.01648 2.82091 9.17008 2.66204 9.36287 2.54397C9.55566 2.42375 9.76645 2.36364 9.99526 2.36364C10.2347 2.36364 10.4507 2.4216 10.6435 2.53753C10.8363 2.6556 10.9889 2.81339 11.1011 3.0109C11.2156 3.20841 11.2727 3.4306 11.2727 3.67748V3.98019C11.2727 3.99736 11.2622 4.00595 11.241 4.00595H10.5101C10.4931 4.00595 10.4847 3.99736 10.4847 3.98019V3.72901C10.4847 3.56155 10.438 3.42309 10.3448 3.3136C10.2516 3.20411 10.1351 3.14937 9.99526 3.14937C9.87025 3.14937 9.75904 3.20196 9.66158 3.30716C9.56414 3.41235 9.51539 3.53579 9.51539 3.67748V5.76741C9.51539 5.91124 9.56307 6.03576 9.6584 6.14094C9.75375 6.244 9.86603 6.29553 9.99526 6.29553C10.1351 6.29553 10.2516 6.24506 10.3448 6.14417C10.438 6.04112 10.4847 5.91553 10.4847 5.76741V5.44215H10.0302C10.0069 5.44215 9.99526 5.43142 9.99526 5.40995V4.67253C9.99526 4.65106 10.0069 4.64033 10.0302 4.64033H11.2473C11.2643 4.64033 11.2727 4.65106 11.2727 4.67253V5.76741C11.2727 6.01429 11.2156 6.23756 11.1011 6.43721C10.9846 6.63685 10.831 6.79573 10.6404 6.91379C10.4497 7.03188 10.2347 7.09091 9.99526 7.09091Z" fill="#FCFCFF"/>
<path d="M9.50058 13.4545H8.74736C8.73208 13.4545 8.72552 13.4435 8.72771 13.4214L9.49404 10.9964L8.74082 8.75381C8.73644 8.73611 8.74298 8.72727 8.76047 8.72727H9.51366C9.5355 8.72727 9.54861 8.73611 9.55297 8.75381L10.0016 10.3694L10.4568 8.75381C10.4612 8.73611 10.4754 8.72727 10.4994 8.72727H11.2428C11.2603 8.72727 11.2668 8.73611 11.2625 8.75381L10.5125 10.9897L11.269 13.4214C11.2777 13.4435 11.2712 13.4545 11.2494 13.4545H10.4994C10.4798 13.4545 10.4656 13.4435 10.4568 13.4214L10.0016 11.6665L9.53988 13.4214C9.53769 13.4435 9.52458 13.4545 9.50058 13.4545Z" fill="#FCFCFF"/>
<path d="M5.99529 13.4545C5.76762 13.4545 5.55681 13.3935 5.36287 13.2714C5.16893 13.1492 5.01399 12.9856 4.89804 12.7806C4.78421 12.5734 4.72729 12.3477 4.72729 12.1034L4.73995 8.75344C4.73995 8.73599 4.74837 8.72727 4.76525 8.72727H5.49251C5.50939 8.72727 5.51781 8.73599 5.51781 8.75344V12.1034C5.51781 12.2539 5.56419 12.3826 5.65695 12.4895C5.7497 12.5941 5.86247 12.6465 5.99529 12.6465C6.13442 12.6465 6.25034 12.5941 6.3431 12.4895C6.43585 12.3826 6.48223 12.2539 6.48223 12.1034V8.75344C6.48223 8.73599 6.49066 8.72727 6.50753 8.72727H7.2348C7.25167 8.72727 7.2601 8.73599 7.2601 8.75344L7.27275 12.1034C7.27275 12.3499 7.21583 12.5767 7.102 12.7839C6.98606 12.9889 6.83218 13.1525 6.64033 13.2746C6.44851 13.3946 6.23349 13.4545 5.99529 13.4545Z" fill="#FCFCFF"/>
<mask id="mask0_317_2" style="mask-type:luminance" maskUnits="userSpaceOnUse" x="8" y="7" width="7" height="2">
<path d="M14.75 7.75153H8V8.00153H14.75V7.75153Z" fill="white"/>
</mask>
<g mask="url(#mask0_317_2)">
<path d="M8 7.75153C8 7.83488 8 7.9182 8 8.00153C8.1125 7.99945 8.225 7.99738 8.3375 7.99528C10.3625 7.95778 12.3875 7.92028 14.4125 7.88278C14.525 7.8807 14.6375 7.87863 14.75 7.87653C14.6375 7.87445 14.525 7.87238 14.4125 7.87028C12.3875 7.83278 10.3625 7.79528 8.3375 7.75778C8.225 7.7557 8.1125 7.75363 8 7.75153Z" fill="#FCFCFF"/>
</g>
<mask id="mask1_317_2" style="mask-type:luminance" maskUnits="userSpaceOnUse" x="1" y="7" width="7" height="1">
<path d="M8 7.75H1.25V8H8V7.75Z" fill="white"/>
</mask>
<g mask="url(#mask1_317_2)">
<path d="M8 8C8 7.91668 8 7.83332 8 7.75C7.8875 7.75207 7.775 7.75417 7.6625 7.75625C5.6375 7.79375 3.6125 7.83125 1.5875 7.86875C1.475 7.87083 1.3625 7.87292 1.25 7.875C1.3625 7.87708 1.475 7.87917 1.5875 7.88125C3.6125 7.91875 5.6375 7.95625 7.6625 7.99375C7.775 7.99583 7.8875 7.99792 8 8Z" fill="#FCFCFF"/>
</g>
</g>
<defs>
<clipPath id="clip0_317_2">
<rect width="16" height="16" fill="white"/>
</clipPath>
</defs>
</svg>
