<svg width="72" height="72" viewBox="0 0 72 72" fill="none" xmlns="http://www.w3.org/2000/svg">
<g clip-path="url(#clip0_231_87)">
<path d="M72 0H0V72H72V0Z" fill="#FCFCFF"/>
<path d="M30.975 31.091H21.3886C21.3113 31.091 21.2727 31.045 21.2727 30.9531L21.3016 11.5648C21.3016 11.4913 21.3402 11.4546 21.4175 11.4546H30.9461C31.0234 11.4546 31.062 11.5005 31.062 11.5924V14.748C31.062 14.8215 31.0234 14.8582 30.9461 14.8582H24.864V19.2678H30.9461C31.0234 19.2678 31.062 19.3046 31.062 19.378L31.0909 22.5749C31.0909 22.6485 31.0523 22.6853 30.975 22.6853H24.864V27.6184H30.975C31.0523 27.6184 31.0909 27.6643 31.0909 27.7563V30.9807C31.0909 31.0542 31.0523 31.091 30.975 31.091Z" fill="#1D002F"/>
<path d="M44.9786 31.9087C43.9203 31.9087 42.9669 31.6431 42.1185 31.1117C41.2604 30.5804 40.5692 29.8655 40.045 28.967C39.5301 28.0686 39.2727 27.0639 39.2727 25.953V16.5483C39.2727 15.4663 39.5349 14.4809 40.0592 13.5921C40.5741 12.6937 41.2652 11.9788 42.1328 11.4475C43.0004 10.9065 43.9489 10.636 44.9786 10.636C46.0559 10.636 47.0282 10.8968 47.8958 11.4185C48.7634 11.9498 49.4497 12.6599 49.955 13.5487C50.4699 14.4374 50.7273 15.4373 50.7273 16.5483V17.9105C50.7273 17.9878 50.6796 18.0264 50.5843 18.0264H47.2951C47.219 18.0264 47.1808 17.9878 47.1808 17.9105V16.7802C47.1808 16.0266 46.9711 15.4035 46.5516 14.9108C46.132 14.4181 45.6078 14.1718 44.9786 14.1718C44.416 14.1718 43.9156 14.4085 43.477 14.8818C43.0385 15.3552 42.8191 15.9107 42.8191 16.5483V25.953C42.8191 26.6002 43.0337 27.1606 43.4627 27.6339C43.8918 28.0976 44.397 28.3295 44.9786 28.3295C45.6078 28.3295 46.132 28.1024 46.5516 27.6484C46.9711 27.1847 47.1808 26.6195 47.1808 25.953V24.4893H45.1358C45.0309 24.4893 44.9786 24.441 44.9786 24.3444V21.026C44.9786 20.9294 45.0309 20.8811 45.1358 20.8811H50.6128C50.6891 20.8811 50.7273 20.9294 50.7273 21.026V25.953C50.7273 27.0639 50.4699 28.0686 49.955 28.967C49.4307 29.8655 48.7395 30.5804 47.8815 31.1117C47.0234 31.6431 46.0559 31.9087 44.9786 31.9087Z" fill="#1D002F"/>
<path d="M42.7525 60.5457H39.363C39.2943 60.5457 39.2647 60.4959 39.2746 60.3964L42.7231 49.4839L39.3335 39.3924C39.3138 39.3127 39.3433 39.2729 39.422 39.2729H42.8114C42.9096 39.2729 42.9686 39.3127 42.9882 39.3924L45.0072 46.6624L47.0556 39.3924C47.0753 39.3127 47.1391 39.2729 47.2472 39.2729H50.5925C50.6711 39.2729 50.7006 39.3127 50.681 39.3924L47.3061 49.454L50.7104 60.3964C50.7497 60.4959 50.7203 60.5457 50.622 60.5457H47.2472C47.1588 60.5457 47.0949 60.4959 47.0556 60.3964L45.0072 52.4994L42.9293 60.3964C42.9195 60.4959 42.8605 60.5457 42.7525 60.5457Z" fill="#1D002F"/>
<path d="M26.9787 60.5457C25.9542 60.5457 25.0055 60.2709 24.1328 59.7213C23.2601 59.1716 22.5628 58.4356 22.0411 57.513C21.5288 56.5806 21.2727 55.5649 21.2727 54.4657L21.3296 39.3907C21.3296 39.3122 21.3675 39.2729 21.4435 39.2729H24.7162C24.7921 39.2729 24.83 39.3122 24.83 39.3907V54.4657C24.83 55.1429 25.0387 55.7219 25.4561 56.2028C25.8735 56.6739 26.381 56.9094 26.9787 56.9094C27.6048 56.9094 28.1264 56.6739 28.5438 56.2028C28.9612 55.7219 29.1699 55.1429 29.1699 54.4657V39.3907C29.1699 39.3122 29.2078 39.2729 29.2838 39.2729H32.5565C32.6324 39.2729 32.6703 39.3122 32.6703 39.3907L32.7273 54.4657C32.7273 55.5747 32.4711 56.5954 31.9589 57.5277C31.4371 58.4503 30.7447 59.1863 29.8814 59.736C29.0182 60.2758 28.0506 60.5457 26.9787 60.5457Z" fill="#1D002F"/>
<mask id="mask0_231_87" style="mask-type:luminance" maskUnits="userSpaceOnUse" x="36" y="34" width="31" height="3">
<path d="M66.375 34.8809H36V36.0059H66.375V34.8809Z" fill="white"/>
</mask>
<g mask="url(#mask0_231_87)">
<path d="M36 34.8811C36 35.2562 36 35.6311 36 36.0061C36.5062 35.9968 37.0125 35.9874 37.5187 35.978C46.6312 35.8092 55.7438 35.6405 64.8563 35.4717C65.3625 35.4624 65.8687 35.4531 66.375 35.4436C65.8687 35.4343 65.3625 35.4249 64.8563 35.4155C55.7438 35.2467 46.6312 35.078 37.5187 34.9092C37.0125 34.8999 36.5062 34.8906 36 34.8811Z" fill="#1D002F"/>
</g>
<mask id="mask1_231_87" style="mask-type:luminance" maskUnits="userSpaceOnUse" x="5" y="34" width="31" height="2">
<path d="M36 34.875H5.625V36H36V34.875Z" fill="white"/>
</mask>
<g mask="url(#mask1_231_87)">
<path d="M36 36C36 35.625 36 35.25 36 34.875C35.4937 34.8843 34.9875 34.8938 34.4812 34.9031C25.3687 35.0719 16.2563 35.2406 7.14375 35.4094C6.6375 35.4187 6.13125 35.4282 5.625 35.4375C6.13125 35.4468 6.6375 35.4563 7.14375 35.4656C16.2563 35.6344 25.3687 35.8031 34.4812 35.9719C34.9875 35.9812 35.4937 35.9907 36 36Z" fill="#1D002F"/>
</g>
</g>
<defs>
<clipPath id="clip0_231_87">
<rect width="72" height="72" fill="white"/>
</clipPath>
</defs>
</svg>
