<svg width="88" height="88" viewBox="0 0 88 88" fill="none" xmlns="http://www.w3.org/2000/svg">
<g clip-path="url(#clip0_194_1406)">
<path d="M88 0H0V88H88V0Z" fill="#24003A"/>
<path d="M37.8584 38H26.1416C26.0472 38 26 37.9438 26 37.8316L26.0353 14.1347C26.0353 14.0449 26.0825 14 26.1769 14H37.8231C37.9175 14 37.9647 14.0561 37.9647 14.1684V18.0253C37.9647 18.1151 37.9175 18.16 37.8231 18.16H30.3893V23.5495H37.8231C37.9175 23.5495 37.9647 23.5944 37.9647 23.6842L38 27.5915C38 27.6814 37.9528 27.7264 37.8584 27.7264H30.3893V33.7558H37.8584C37.9528 33.7558 38 33.8119 38 33.9243V37.8653C38 37.9551 37.9528 38 37.8584 38Z" fill="#FCFCFF"/>
<path d="M54.9738 39C53.6804 39 52.5151 38.6753 51.4782 38.0259C50.4294 37.3765 49.5847 36.5027 48.9439 35.4046C48.3146 34.3066 48 33.0786 48 31.7208V20.2262C48 18.9037 48.3205 17.6994 48.9612 16.6131C49.5905 15.515 50.4353 14.6412 51.4957 13.9918C52.556 13.3306 53.7154 13 54.9738 13C56.2905 13 57.479 13.3188 58.5393 13.9564C59.5997 14.6058 60.4386 15.4737 61.0561 16.5599C61.6854 17.6462 62 18.8683 62 20.2262V21.891C62 21.9855 61.9418 22.0327 61.8253 22.0327H57.8052C57.7121 22.0327 57.6655 21.9855 57.6655 21.891V20.5096C57.6655 19.5885 57.4091 18.827 56.8964 18.2248C56.3836 17.6226 55.7428 17.3215 54.9738 17.3215C54.2863 17.3215 53.6746 17.6108 53.1386 18.1894C52.6026 18.7679 52.3345 19.4469 52.3345 20.2262V31.7208C52.3345 32.5118 52.5968 33.1967 53.1211 33.7752C53.6455 34.342 54.263 34.6254 54.9738 34.6254C55.7428 34.6254 56.3836 34.3478 56.8964 33.793C57.4091 33.2262 57.6655 32.5354 57.6655 31.7208V29.9319H55.166C55.0378 29.9319 54.9738 29.8728 54.9738 29.7547V25.6989C54.9738 25.5809 55.0378 25.5218 55.166 25.5218H61.8601C61.9534 25.5218 62 25.5809 62 25.6989V31.7208C62 33.0786 61.6854 34.3066 61.0561 35.4046C60.4153 36.5027 59.5706 37.3765 58.5218 38.0259C57.4731 38.6753 56.2905 39 54.9738 39Z" fill="#FCFCFF"/>
<path d="M52.2531 74H48.1103C48.0263 74 47.9902 73.9392 48.0023 73.8176L52.2171 60.48L48.0744 48.1459C48.0503 48.0486 48.0863 48 48.1824 48H52.325C52.4451 48 52.5172 48.0486 52.5412 48.1459L55.0088 57.0316L57.5124 48.1459C57.5365 48.0486 57.6145 48 57.7467 48H61.8354C61.9314 48 61.9674 48.0486 61.9434 48.1459L57.8186 60.4435L61.9794 73.8176C62.0274 73.9392 61.9915 74 61.8713 74H57.7467C57.6386 74 57.5605 73.9392 57.5124 73.8176L55.0088 64.1657L52.4692 73.8176C52.4572 73.9392 52.3851 74 52.2531 74Z" fill="#FCFCFF"/>
<path d="M32.974 74C31.7218 74 30.5623 73.6642 29.4957 72.9924C28.429 72.3206 27.5768 71.421 26.9391 70.2934C26.313 69.1538 26 67.9124 26 66.5689L26.0696 48.1439C26.0696 48.0479 26.1159 48 26.2087 48H30.2087C30.3015 48 30.3478 48.0479 30.3478 48.1439V66.5689C30.3478 67.3966 30.6029 68.1042 31.1131 68.692C31.6232 69.2678 32.2434 69.5557 32.974 69.5557C33.7392 69.5557 34.3768 69.2678 34.8869 68.692C35.3971 68.1042 35.6522 67.3966 35.6522 66.5689V48.1439C35.6522 48.0479 35.6985 48 35.7913 48H39.7913C39.8841 48 39.9304 48.0479 39.9304 48.1439L40 66.5689C40 67.9244 39.687 69.1719 39.0609 70.3114C38.4232 71.439 37.5769 72.3386 36.5217 73.0104C35.4667 73.6701 34.2841 74 32.974 74Z" fill="#FCFCFF"/>
<mask id="mask0_194_1406" style="mask-type:luminance" maskUnits="userSpaceOnUse" x="44" y="42" width="38" height="3">
<path d="M81.125 42.6334H44V44.0084H81.125V42.6334Z" fill="white"/>
</mask>
<g mask="url(#mask0_194_1406)">
<path d="M44 42.6334C44 43.0918 44 43.5501 44 44.0084C44.6187 43.997 45.2375 43.9856 45.8562 43.974C56.9937 43.7678 68.1313 43.5615 79.2688 43.3553C79.8875 43.3439 80.5062 43.3325 81.125 43.3209C80.5062 43.3095 79.8875 43.2981 79.2688 43.2865C68.1313 43.0803 56.9937 42.874 45.8562 42.6678C45.2375 42.6564 44.6187 42.645 44 42.6334Z" fill="#FCFCFF"/>
</g>
<mask id="mask1_194_1406" style="mask-type:luminance" maskUnits="userSpaceOnUse" x="6" y="42" width="38" height="2">
<path d="M44 42.625H6.875V44H44V42.625Z" fill="white"/>
</mask>
<g mask="url(#mask1_194_1406)">
<path d="M44 44C44 43.5417 44 43.0833 44 42.625C43.3812 42.6364 42.7625 42.648 42.1437 42.6594C31.0062 42.8656 19.8688 43.0719 8.73125 43.2781C8.1125 43.2895 7.49375 43.3011 6.875 43.3125C7.49375 43.3239 8.1125 43.3355 8.73125 43.3469C19.8688 43.5531 31.0062 43.7594 42.1437 43.9656C42.7625 43.977 43.3812 43.9886 44 44Z" fill="#FCFCFF"/>
</g>
</g>
<defs>
<clipPath id="clip0_194_1406">
<rect width="88" height="88" fill="white"/>
</clipPath>
</defs>
</svg>
