<svg width="53" height="53" viewBox="0 0 53 53" fill="none" xmlns="http://www.w3.org/2000/svg">
<g clip-path="url(#clip0_231_176)">
<path d="M52.5 0.5H0.5V52.5H52.5V0.5Z" fill="#3C0061"/>
<path d="M22.8709 22.9548H15.9473C15.8915 22.9548 15.8636 22.9216 15.8636 22.8552L15.8845 8.85257C15.8845 8.79949 15.9124 8.77295 15.9682 8.77295H22.85C22.9058 8.77295 22.9337 8.80612 22.9337 8.87247V11.1515C22.9337 11.2046 22.9058 11.2311 22.85 11.2311H18.4573V14.4158H22.85C22.9058 14.4158 22.9337 14.4424 22.9337 14.4954L22.9545 16.8043C22.9545 16.8574 22.9267 16.884 22.8709 16.884H18.4573V20.4468H22.8709C22.9267 20.4468 22.9545 20.48 22.9545 20.5464V22.8752C22.9545 22.9282 22.9267 22.9548 22.8709 22.9548Z" fill="#FCFCFF"/>
<path d="M32.9845 23.5458C32.2202 23.5458 31.5317 23.3539 30.9189 22.9701C30.2992 22.5864 29.8 22.0701 29.4214 21.4212C29.0495 20.7724 28.8636 20.0468 28.8636 19.2444V12.4521C28.8636 11.6707 29.053 10.959 29.4317 10.3171C29.8035 9.66826 30.3027 9.15195 30.9293 8.76821C31.5558 8.37749 32.2409 8.18213 32.9845 8.18213C33.7626 8.18213 34.4649 8.37051 35.0914 8.74727C35.718 9.13102 36.2137 9.64384 36.5786 10.2857C36.9505 10.9276 37.1364 11.6498 37.1364 12.4521V13.4359C37.1364 13.4917 37.102 13.5196 37.0331 13.5196H34.6576C34.6026 13.5196 34.5751 13.4917 34.5751 13.4359V12.6196C34.5751 12.0753 34.4236 11.6253 34.1206 11.2695C33.8176 10.9137 33.439 10.7358 32.9845 10.7358C32.5783 10.7358 32.2168 10.9067 31.9001 11.2486C31.5834 11.5905 31.425 11.9916 31.425 12.4521V19.2444C31.425 19.7118 31.5799 20.1165 31.8897 20.4584C32.1996 20.7933 32.5645 20.9608 32.9845 20.9608C33.439 20.9608 33.8176 20.7968 34.1206 20.4689C34.4236 20.134 34.5751 19.7258 34.5751 19.2444V18.1873H33.0981C33.0223 18.1873 32.9845 18.1524 32.9845 18.0826V15.686C32.9845 15.6163 33.0223 15.5814 33.0981 15.5814H37.0537C37.1088 15.5814 37.1364 15.6163 37.1364 15.686V19.2444C37.1364 20.0468 36.9505 20.7724 36.5786 21.4212C36.2 22.0701 35.7008 22.5864 35.0811 22.9701C34.4614 23.3539 33.7626 23.5458 32.9845 23.5458Z" fill="#FCFCFF"/>
<path d="M31.3768 44.2274H28.9288C28.8792 44.2274 28.8579 44.1915 28.865 44.1196L31.3556 36.2383L28.9076 28.95C28.8933 28.8925 28.9146 28.8638 28.9714 28.8638H31.4193C31.4903 28.8638 31.5329 28.8925 31.5471 28.95L33.0052 34.2006L34.4846 28.95C34.4989 28.8925 34.5449 28.8638 34.623 28.8638H37.0391C37.0958 28.8638 37.1171 28.8925 37.1029 28.95L34.6655 36.2167L37.1242 44.1196C37.1526 44.1915 37.1313 44.2274 37.0603 44.2274H34.623C34.5592 44.2274 34.513 44.1915 34.4846 44.1196L33.0052 38.4162L31.5045 44.1196C31.4974 44.1915 31.4548 44.2274 31.3768 44.2274Z" fill="#FCFCFF"/>
<path d="M19.9846 44.2274C19.2447 44.2274 18.5595 44.0289 17.9293 43.632C17.299 43.235 16.7954 42.7035 16.4186 42.0372C16.0486 41.3638 15.8636 40.6302 15.8636 39.8363L15.9047 28.9488C15.9047 28.8921 15.9321 28.8638 15.987 28.8638H18.3506C18.4054 28.8638 18.4328 28.8921 18.4328 28.9488V39.8363C18.4328 40.3254 18.5835 40.7435 18.885 41.0909C19.1865 41.4311 19.5529 41.6012 19.9846 41.6012C20.4368 41.6012 20.8135 41.4311 21.115 41.0909C21.4165 40.7435 21.5672 40.3254 21.5672 39.8363V28.9488C21.5672 28.8921 21.5946 28.8638 21.6494 28.8638H24.013C24.0679 28.8638 24.0952 28.8921 24.0952 28.9488L24.1364 39.8363C24.1364 40.6373 23.9514 41.3744 23.5814 42.0478C23.2046 42.7141 22.7045 43.2457 22.081 43.6427C21.4576 44.0325 20.7588 44.2274 19.9846 44.2274Z" fill="#FCFCFF"/>
<mask id="mask0_231_176" style="mask-type:luminance" maskUnits="userSpaceOnUse" x="26" y="25" width="23" height="2">
<path d="M48.4375 25.6924H26.5V26.5049H48.4375V25.6924Z" fill="white"/>
</mask>
<g mask="url(#mask0_231_176)">
<path d="M26.5 25.6924C26.5 25.9633 26.5 26.2341 26.5 26.5049C26.8656 26.4981 27.2312 26.4914 27.5969 26.4846C34.1781 26.3627 40.7594 26.2408 47.3406 26.1189C47.7063 26.1122 48.0719 26.1055 48.4375 26.0986C48.0719 26.0919 47.7063 26.0851 47.3406 26.0783C40.7594 25.9564 34.1781 25.8346 27.5969 25.7127C27.2312 25.706 26.8656 25.6992 26.5 25.6924Z" fill="#FCFCFF"/>
</g>
<mask id="mask1_231_176" style="mask-type:luminance" maskUnits="userSpaceOnUse" x="4" y="25" width="23" height="2">
<path d="M26.5 25.6875H4.5625V26.5H26.5V25.6875Z" fill="white"/>
</mask>
<g mask="url(#mask1_231_176)">
<path d="M26.5 26.5C26.5 26.2292 26.5 25.9583 26.5 25.6875C26.1344 25.6942 25.7687 25.7011 25.4031 25.7078C18.8219 25.8297 12.2406 25.9516 5.65937 26.0734C5.29375 26.0802 4.92812 26.087 4.5625 26.0938C4.92812 26.1005 5.29375 26.1073 5.65937 26.1141C12.2406 26.2359 18.8219 26.3578 25.4031 26.4797C25.7687 26.4864 26.1344 26.4933 26.5 26.5Z" fill="#FCFCFF"/>
</g>
</g>
<defs>
<clipPath id="clip0_231_176">
<rect width="52" height="52" fill="white" transform="translate(0.5 0.5)"/>
</clipPath>
</defs>
</svg>
