<svg width="48" height="48" viewBox="0 0 48 48" fill="none" xmlns="http://www.w3.org/2000/svg">
<g clip-path="url(#clip0_194_1789)">
<path d="M48 0H0V48H48V0Z" fill="#FCFCFF"/>
<path d="M20.6501 20.7273H14.2591C14.2076 20.7273 14.1819 20.6966 14.1819 20.6354L14.2012 7.70985C14.2012 7.66085 14.2269 7.63635 14.2784 7.63635H20.6308C20.6823 7.63635 20.7081 7.66697 20.7081 7.72822V9.83195C20.7081 9.88094 20.6823 9.90544 20.6308 9.90544H16.5761V12.8452H20.6308C20.6823 12.8452 20.7081 12.8697 20.7081 12.9187L20.7273 15.0499C20.7273 15.0989 20.7016 15.1235 20.6501 15.1235H16.5761V18.4123H20.6501C20.7016 18.4123 20.7273 18.4428 20.7273 18.5041V20.6538C20.7273 20.7027 20.7016 20.7273 20.6501 20.7273Z" fill="#24003A"/>
<path d="M29.9858 21.2728C29.2803 21.2728 28.6447 21.0957 28.0791 20.7414C27.507 20.3872 27.0462 19.9106 26.6967 19.3117C26.3535 18.7127 26.1819 18.0429 26.1819 17.3023V11.0325C26.1819 10.3112 26.3567 9.65423 26.7062 9.06171C27.0495 8.46276 27.5102 7.98616 28.0886 7.63194C28.667 7.27128 29.2994 7.09094 29.9858 7.09094C30.704 7.09094 31.3522 7.26484 31.9306 7.61261C32.509 7.96684 32.9666 8.44021 33.3034 9.03273C33.6467 9.62525 33.8182 10.2918 33.8182 11.0325V11.9406C33.8182 11.9921 33.7865 12.0179 33.7229 12.0179H31.5302C31.4794 12.0179 31.454 11.9921 31.454 11.9406V11.1871C31.454 10.6847 31.3141 10.2693 31.0345 9.94083C30.7548 9.61237 30.4053 9.44814 29.9858 9.44814C29.6108 9.44814 29.2771 9.60593 28.9847 9.92151C28.6924 10.2371 28.5462 10.6074 28.5462 11.0325V17.3023C28.5462 17.7337 28.6892 18.1073 28.9752 18.4229C29.2612 18.732 29.5981 18.8866 29.9858 18.8866C30.4053 18.8866 30.7548 18.7352 31.0345 18.4326C31.3141 18.1234 31.454 17.7466 31.454 17.3023V16.3265H30.0906C30.0207 16.3265 29.9858 16.2943 29.9858 16.2299V14.0176C29.9858 13.9532 30.0207 13.921 30.0906 13.921H33.742C33.7928 13.921 33.8182 13.9532 33.8182 14.0176V17.3023C33.8182 18.0429 33.6467 18.7127 33.3034 19.3117C32.9539 19.9106 32.4931 20.3872 31.9211 20.7414C31.349 21.0957 30.704 21.2728 29.9858 21.2728Z" fill="#24003A"/>
<path d="M28.5017 40.3636H26.2421C26.1963 40.3636 26.1765 40.3304 26.1831 40.2641L28.4821 32.989L26.2224 26.2614C26.2093 26.2083 26.2289 26.1818 26.2814 26.1818H28.541C28.6065 26.1818 28.6458 26.2083 28.6589 26.2614L30.0049 31.1081L31.3705 26.2614C31.3836 26.2083 31.4262 26.1818 31.4982 26.1818H33.7284C33.7808 26.1818 33.8005 26.2083 33.7874 26.2614L31.5375 32.9691L33.807 40.2641C33.8332 40.3304 33.8136 40.3636 33.7481 40.3636H31.4982C31.4393 40.3636 31.3967 40.3304 31.3705 40.2641L30.0049 34.9994L28.6196 40.2641C28.6131 40.3304 28.5738 40.3636 28.5017 40.3636Z" fill="#24003A"/>
<path d="M17.9859 40.3636C17.3029 40.3636 16.6704 40.1804 16.0886 39.814C15.5068 39.4476 15.042 38.9569 14.6941 38.3418C14.3526 37.7202 14.1819 37.0431 14.1819 36.3102L14.2198 26.2603C14.2198 26.2079 14.2451 26.1818 14.2957 26.1818H16.4775C16.5282 26.1818 16.5534 26.2079 16.5534 26.2603V36.3102C16.5534 36.7617 16.6926 37.1477 16.9708 37.4683C17.2491 37.7824 17.5874 37.9394 17.9859 37.9394C18.4033 37.9394 18.751 37.7824 19.0293 37.4683C19.3076 37.1477 19.4467 36.7617 19.4467 36.3102V26.2603C19.4467 26.2079 19.472 26.1818 19.5226 26.1818H21.7044C21.755 26.1818 21.7803 26.2079 21.7803 26.2603L21.8182 36.3102C21.8182 37.0496 21.6475 37.7301 21.306 38.3516C20.9582 38.9667 20.4965 39.4574 19.921 39.8238C19.3455 40.1837 18.7005 40.3636 17.9859 40.3636Z" fill="#24003A"/>
<mask id="mask0_194_1789" style="mask-type:luminance" maskUnits="userSpaceOnUse" x="24" y="23" width="21" height="2">
<path d="M44.25 23.2545H24V24.0045H44.25V23.2545Z" fill="white"/>
</mask>
<g mask="url(#mask0_194_1789)">
<path d="M24 23.2545C24 23.5046 24 23.7545 24 24.0045C24.3375 23.9983 24.675 23.9921 25.0125 23.9858C31.0875 23.8733 37.1625 23.7608 43.2375 23.6483C43.575 23.642 43.9125 23.6358 44.25 23.6295C43.9125 23.6233 43.575 23.6171 43.2375 23.6108C37.1625 23.4983 31.0875 23.3858 25.0125 23.2733C24.675 23.267 24.3375 23.2608 24 23.2545Z" fill="#24003A"/>
</g>
<mask id="mask1_194_1789" style="mask-type:luminance" maskUnits="userSpaceOnUse" x="3" y="23" width="21" height="1">
<path d="M24 23.25H3.75V24H24V23.25Z" fill="white"/>
</mask>
<g mask="url(#mask1_194_1789)">
<path d="M24 24C24 23.75 24 23.5 24 23.25C23.6625 23.2562 23.325 23.2625 22.9875 23.2687C16.9125 23.3812 10.8375 23.4938 4.7625 23.6063C4.425 23.6125 4.0875 23.6188 3.75 23.625C4.0875 23.6312 4.425 23.6375 4.7625 23.6437C10.8375 23.7562 16.9125 23.8688 22.9875 23.9813C23.325 23.9875 23.6625 23.9938 24 24Z" fill="#24003A"/>
</g>
</g>
<defs>
<clipPath id="clip0_194_1789">
<rect width="48" height="48" fill="white"/>
</clipPath>
</defs>
</svg>
