<svg width="52" height="52" viewBox="0 0 52 52" fill="none" xmlns="http://www.w3.org/2000/svg">
<g clip-path="url(#clip0_231_176)">
<path d="M52 0H0V52H52V0Z" fill="#24003A"/>
<path d="M22.3708 22.4548H15.4472C15.3914 22.4548 15.3635 22.4216 15.3635 22.3552L15.3844 8.35257C15.3844 8.29949 15.4123 8.27295 15.4681 8.27295H22.3499C22.4057 8.27295 22.4336 8.30612 22.4336 8.37247V10.6515C22.4336 10.7046 22.4057 10.7311 22.3499 10.7311H17.9572V13.9158H22.3499C22.4057 13.9158 22.4336 13.9424 22.4336 13.9954L22.4544 16.3043C22.4544 16.3574 22.4265 16.384 22.3708 16.384H17.9572V19.9468H22.3708C22.4265 19.9468 22.4544 19.98 22.4544 20.0464V22.3752C22.4544 22.4282 22.4265 22.4548 22.3708 22.4548Z" fill="#FCFCFF"/>
<path d="M32.4844 23.0458C31.7201 23.0458 31.0316 22.8539 30.4188 22.4701C29.7991 22.0864 29.2999 21.5701 28.9213 20.9212C28.5494 20.2724 28.3635 19.5468 28.3635 18.7444V11.9521C28.3635 11.1707 28.5529 10.459 28.9315 9.81713C29.3034 9.16826 29.8026 8.65195 30.4291 8.26821C31.0557 7.87749 31.7408 7.68213 32.4844 7.68213C33.2625 7.68213 33.9647 7.87051 34.5913 8.24727C35.2179 8.63102 35.7136 9.14384 36.0785 9.78573C36.4504 10.4276 36.6363 11.1498 36.6363 11.9521V12.9359C36.6363 12.9917 36.6018 13.0196 36.533 13.0196H34.1575C34.1025 13.0196 34.0749 12.9917 34.0749 12.9359V12.1196C34.0749 11.5753 33.9235 11.1253 33.6205 10.7695C33.3175 10.4137 32.9388 10.2358 32.4844 10.2358C32.0781 10.2358 31.7167 10.4067 31.3999 10.7486C31.0833 11.0905 30.9248 11.4916 30.9248 11.9521V18.7444C30.9248 19.2118 31.0798 19.6165 31.3896 19.9584C31.6995 20.2933 32.0644 20.4608 32.4844 20.4608C32.9388 20.4608 33.3175 20.2968 33.6205 19.9689C33.9235 19.634 34.0749 19.2258 34.0749 18.7444V17.6873H32.598C32.5222 17.6873 32.4844 17.6524 32.4844 17.5826V15.186C32.4844 15.1163 32.5222 15.0814 32.598 15.0814H36.5536C36.6087 15.0814 36.6363 15.1163 36.6363 15.186V18.7444C36.6363 19.5468 36.4504 20.2724 36.0785 20.9212C35.6999 21.5701 35.2007 22.0864 34.581 22.4701C33.9613 22.8539 33.2625 23.0458 32.4844 23.0458Z" fill="#FCFCFF"/>
<path d="M30.8767 43.7274H28.4287C28.3791 43.7274 28.3577 43.6915 28.3649 43.6196L30.8554 35.7383L28.4075 28.45C28.3932 28.3925 28.4145 28.3638 28.4713 28.3638H30.9192C30.9902 28.3638 31.0328 28.3925 31.047 28.45L32.5051 33.7006L33.9845 28.45C33.9987 28.3925 34.0448 28.3638 34.1229 28.3638H36.539C36.5957 28.3638 36.617 28.3925 36.6028 28.45L34.1654 35.7167L36.6241 43.6196C36.6525 43.6915 36.6312 43.7274 36.5602 43.7274H34.1229C34.0591 43.7274 34.0129 43.6915 33.9845 43.6196L32.5051 37.9162L31.0044 43.6196C30.9973 43.6915 30.9547 43.7274 30.8767 43.7274Z" fill="#FCFCFF"/>
<path d="M19.4845 43.7274C18.7446 43.7274 18.0594 43.5289 17.4291 43.132C16.7988 42.735 16.2953 42.2035 15.9185 41.5372C15.5485 40.8638 15.3635 40.1302 15.3635 39.3363L15.4046 28.4488C15.4046 28.3921 15.432 28.3638 15.4869 28.3638H17.8505C17.9053 28.3638 17.9327 28.3921 17.9327 28.4488V39.3363C17.9327 39.8254 18.0834 40.2435 18.3849 40.5909C18.6863 40.9311 19.0528 41.1012 19.4845 41.1012C19.9367 41.1012 20.3134 40.9311 20.6149 40.5909C20.9163 40.2435 21.0671 39.8254 21.0671 39.3363V28.4488C21.0671 28.3921 21.0945 28.3638 21.1493 28.3638H23.5129C23.5678 28.3638 23.5951 28.3921 23.5951 28.4488L23.6363 39.3363C23.6363 40.1373 23.4513 40.8744 23.0813 41.5478C22.7045 42.2141 22.2044 42.7457 21.5809 43.1427C20.9575 43.5325 20.2587 43.7274 19.4845 43.7274Z" fill="#FCFCFF"/>
<mask id="mask0_231_176" style="mask-type:luminance" maskUnits="userSpaceOnUse" x="26" y="25" width="22" height="2">
<path d="M47.9375 25.1924H26V26.0049H47.9375V25.1924Z" fill="white"/>
</mask>
<g mask="url(#mask0_231_176)">
<path d="M26 25.1924C26 25.4633 26 25.7341 26 26.0049C26.3656 25.9981 26.7312 25.9914 27.0969 25.9846C33.6781 25.8627 40.2594 25.7408 46.8406 25.6189C47.2063 25.6122 47.5719 25.6055 47.9375 25.5986C47.5719 25.5919 47.2063 25.5851 46.8406 25.5783C40.2594 25.4564 33.6781 25.3346 27.0969 25.2127C26.7312 25.206 26.3656 25.1992 26 25.1924Z" fill="#FCFCFF"/>
</g>
<mask id="mask1_231_176" style="mask-type:luminance" maskUnits="userSpaceOnUse" x="4" y="25" width="22" height="1">
<path d="M26 25.1875H4.0625V26H26V25.1875Z" fill="white"/>
</mask>
<g mask="url(#mask1_231_176)">
<path d="M26 26C26 25.7292 26 25.4583 26 25.1875C25.6344 25.1942 25.2687 25.2011 24.9031 25.2078C18.3219 25.3297 11.7406 25.4516 5.15937 25.5734C4.79375 25.5802 4.42812 25.587 4.0625 25.5938C4.42812 25.6005 4.79375 25.6073 5.15937 25.6141C11.7406 25.7359 18.3219 25.8578 24.9031 25.9797C25.2687 25.9864 25.6344 25.9933 26 26Z" fill="#FCFCFF"/>
</g>
</g>
<defs>
<clipPath id="clip0_231_176">
<rect width="52" height="52" fill="white"/>
</clipPath>
</defs>
</svg>
