<svg width="73" height="73" viewBox="0 0 73 73" fill="none" xmlns="http://www.w3.org/2000/svg">
<g clip-path="url(#clip0_231_87)">
<path d="M72.5 0.5H0.5V72.5H72.5V0.5Z" fill="#FCFCFF"/>
<path d="M31.475 31.591H21.8886C21.8113 31.591 21.7727 31.545 21.7727 31.4531L21.8016 12.0648C21.8016 11.9913 21.8402 11.9546 21.9175 11.9546H31.4461C31.5234 11.9546 31.562 12.0005 31.562 12.0924V15.248C31.562 15.3215 31.5234 15.3582 31.4461 15.3582H25.364V19.7678H31.4461C31.5234 19.7678 31.562 19.8046 31.562 19.878L31.5909 23.0749C31.5909 23.1485 31.5523 23.1853 31.475 23.1853H25.364V28.1184H31.475C31.5523 28.1184 31.5909 28.1643 31.5909 28.2563V31.4807C31.5909 31.5542 31.5523 31.591 31.475 31.591Z" fill="#3C0061"/>
<path d="M45.4786 32.4085C44.4203 32.4085 43.4669 32.1428 42.6185 31.6115C41.7604 31.0802 41.0693 30.3652 40.545 29.4668C40.0301 28.5684 39.7727 27.5637 39.7727 26.4527V17.0481C39.7727 15.9661 40.0349 14.9807 40.5592 14.0919C41.0741 13.1935 41.7652 12.4786 42.6328 11.9472C43.5004 11.4062 44.4489 11.1357 45.4786 11.1357C46.5559 11.1357 47.5282 11.3966 48.3958 11.9183C49.2634 12.4496 49.9497 13.1596 50.455 14.0484C50.9699 14.9372 51.2273 15.9371 51.2273 17.0481V18.4102C51.2273 18.4875 51.1796 18.5262 51.0843 18.5262H47.7951C47.719 18.5262 47.6808 18.4875 47.6808 18.4102V17.2799C47.6808 16.5263 47.4711 15.9033 47.0516 15.4106C46.632 14.9179 46.1078 14.6715 45.4786 14.6715C44.916 14.6715 44.4156 14.9082 43.977 15.3816C43.5385 15.855 43.3192 16.4104 43.3192 17.0481V26.4527C43.3192 27.0999 43.5337 27.6603 43.9627 28.1336C44.3918 28.5974 44.897 28.8292 45.4786 28.8292C46.1078 28.8292 46.632 28.6022 47.0516 28.1482C47.4711 27.6844 47.6808 27.1193 47.6808 26.4527V24.9891H45.6358C45.5309 24.9891 45.4786 24.9408 45.4786 24.8442V21.5258C45.4786 21.4292 45.5309 21.3809 45.6358 21.3809H51.1128C51.1891 21.3809 51.2273 21.4292 51.2273 21.5258V26.4527C51.2273 27.5637 50.9699 28.5684 50.455 29.4668C49.9307 30.3652 49.2396 31.0802 48.3815 31.6115C47.5234 32.1428 46.5559 32.4085 45.4786 32.4085Z" fill="#3C0061"/>
<path d="M43.2525 61.0457H39.863C39.7943 61.0457 39.7647 60.9959 39.7746 60.8964L43.2231 49.9839L39.8336 39.8924C39.8139 39.8127 39.8433 39.7729 39.922 39.7729H43.3114C43.4097 39.7729 43.4687 39.8127 43.4882 39.8924L45.5072 47.1624L47.5556 39.8924C47.5753 39.8127 47.6391 39.7729 47.7473 39.7729H51.0926C51.1711 39.7729 51.2006 39.8127 51.181 39.8924L47.8061 49.954L51.2104 60.8964C51.2497 60.9959 51.2203 61.0457 51.122 61.0457H47.7473C47.6588 61.0457 47.5949 60.9959 47.5556 60.8964L45.5072 52.9994L43.4294 60.8964C43.4195 60.9959 43.3605 61.0457 43.2525 61.0457Z" fill="#3C0061"/>
<path d="M27.4787 61.0457C26.4542 61.0457 25.5055 60.7709 24.6328 60.2213C23.7601 59.6716 23.0628 58.9356 22.5411 58.013C22.0288 57.0806 21.7727 56.0649 21.7727 54.9657L21.8296 39.8907C21.8296 39.8122 21.8676 39.7729 21.9435 39.7729H25.2162C25.2921 39.7729 25.33 39.8122 25.33 39.8907V54.9657C25.33 55.6429 25.5387 56.2219 25.9562 56.7028C26.3736 57.1739 26.881 57.4094 27.4787 57.4094C28.1048 57.4094 28.6264 57.1739 29.0438 56.7028C29.4612 56.2219 29.6699 55.6429 29.6699 54.9657V39.8907C29.6699 39.8122 29.7079 39.7729 29.7838 39.7729H33.0565C33.1324 39.7729 33.1703 39.8122 33.1703 39.8907L33.2273 54.9657C33.2273 56.0747 32.9711 57.0954 32.4589 58.0277C31.9371 58.9503 31.2447 59.6863 30.3814 60.236C29.5182 60.7758 28.5506 61.0457 27.4787 61.0457Z" fill="#3C0061"/>
<mask id="mask0_231_87" style="mask-type:luminance" maskUnits="userSpaceOnUse" x="36" y="35" width="31" height="2">
<path d="M66.875 35.3813H36.5V36.5063H66.875V35.3813Z" fill="white"/>
</mask>
<g mask="url(#mask0_231_87)">
<path d="M36.5 35.3813C36.5 35.7564 36.5 36.1314 36.5 36.5063C37.0062 36.497 37.5125 36.4877 38.0187 36.4782C47.1312 36.3095 56.2438 36.1407 65.3563 35.972C65.8625 35.9626 66.3687 35.9533 66.875 35.9438C66.3687 35.9345 65.8625 35.9252 65.3563 35.9157C56.2438 35.747 47.1312 35.5782 38.0187 35.4095C37.5125 35.4001 37.0062 35.3908 36.5 35.3813Z" fill="#3C0061"/>
</g>
<mask id="mask1_231_87" style="mask-type:luminance" maskUnits="userSpaceOnUse" x="6" y="35" width="31" height="2">
<path d="M36.5 35.375H6.125V36.5H36.5V35.375Z" fill="white"/>
</mask>
<g mask="url(#mask1_231_87)">
<path d="M36.5 36.5C36.5 36.125 36.5 35.75 36.5 35.375C35.9937 35.3843 35.4875 35.3938 34.9812 35.4031C25.8687 35.5719 16.7563 35.7406 7.64375 35.9094C7.1375 35.9187 6.63125 35.9282 6.125 35.9375C6.63125 35.9468 7.1375 35.9563 7.64375 35.9656C16.7563 36.1344 25.8687 36.3031 34.9812 36.4719C35.4875 36.4812 35.9937 36.4907 36.5 36.5Z" fill="#3C0061"/>
</g>
</g>
<defs>
<clipPath id="clip0_231_87">
<rect width="72" height="72" fill="white" transform="translate(0.5 0.5)"/>
</clipPath>
</defs>
</svg>
