<svg width="48" height="48" viewBox="0 0 48 48" fill="none" xmlns="http://www.w3.org/2000/svg">
<g clip-path="url(#clip0_194_1789)">
<path d="M48 0H0V48H48V0Z" fill="#FCFCFF"/>
<path d="M20.65 20.7274H14.2591C14.2076 20.7274 14.1818 20.6967 14.1818 20.6355L14.2011 7.70997C14.2011 7.66097 14.2268 7.63647 14.2783 7.63647H20.6308C20.6823 7.63647 20.708 7.6671 20.708 7.72834V9.83207C20.708 9.88107 20.6823 9.90556 20.6308 9.90556H16.576V12.8453H20.6308C20.6823 12.8453 20.708 12.8698 20.708 12.9188L20.7273 15.05C20.7273 15.0991 20.7015 15.1236 20.65 15.1236H16.576V18.4124H20.65C20.7015 18.4124 20.7273 18.443 20.7273 18.5043V20.6539C20.7273 20.7029 20.7015 20.7274 20.65 20.7274Z" fill="#3C0061"/>
<path d="M29.9857 21.2726C29.2802 21.2726 28.6446 21.0955 28.079 20.7413C27.507 20.3871 27.0462 19.9105 26.6967 19.3115C26.3534 18.7126 26.1818 18.0428 26.1818 17.3021V11.0324C26.1818 10.311 26.3566 9.65411 26.7061 9.06159C27.0494 8.46263 27.5102 7.98604 28.0885 7.63182C28.6669 7.27115 29.2993 7.09082 29.9857 7.09082C30.7039 7.09082 31.3522 7.26471 31.9305 7.61249C32.5089 7.96672 32.9665 8.44009 33.3033 9.03261C33.6466 9.62513 33.8182 10.2917 33.8182 11.0324V11.9405C33.8182 11.992 33.7864 12.0178 33.7229 12.0178H31.5301C31.4793 12.0178 31.4539 11.992 31.4539 11.9405V11.1869C31.4539 10.6846 31.3141 10.2692 31.0344 9.94071C30.7547 9.61225 30.4052 9.44802 29.9857 9.44802C29.6107 9.44802 29.2771 9.60581 28.9847 9.92139C28.6923 10.237 28.5461 10.6073 28.5461 11.0324V17.3021C28.5461 17.7336 28.6891 18.1072 28.9751 18.4227C29.2612 18.7319 29.598 18.8865 29.9857 18.8865C30.4052 18.8865 30.7547 18.7351 31.0344 18.4324C31.3141 18.1233 31.4539 17.7465 31.4539 17.3021V16.3264H30.0906C30.0206 16.3264 29.9857 16.2942 29.9857 16.2298V14.0175C29.9857 13.9531 30.0206 13.9209 30.0906 13.9209H33.7419C33.7928 13.9209 33.8182 13.9531 33.8182 14.0175V17.3021C33.8182 18.0428 33.6466 18.7126 33.3033 19.3115C32.9538 19.9105 32.493 20.3871 31.921 20.7413C31.349 21.0955 30.7039 21.2726 29.9857 21.2726Z" fill="#3C0061"/>
<path d="M28.5017 40.3637H26.242C26.1962 40.3637 26.1765 40.3305 26.183 40.2642L28.4821 32.9892L26.2224 26.2615C26.2092 26.2084 26.2289 26.1819 26.2813 26.1819H28.5409C28.6064 26.1819 28.6458 26.2084 28.6588 26.2615L30.0048 31.1082L31.3704 26.2615C31.3836 26.2084 31.4261 26.1819 31.4982 26.1819H33.7284C33.7808 26.1819 33.8004 26.2084 33.7873 26.2615L31.5374 32.9692L33.807 40.2642C33.8331 40.3305 33.8135 40.3637 33.748 40.3637H31.4982C31.4392 40.3637 31.3966 40.3305 31.3704 40.2642L30.0048 34.9995L28.6196 40.2642C28.613 40.3305 28.5737 40.3637 28.5017 40.3637Z" fill="#3C0061"/>
<path d="M17.9858 40.3637C17.3028 40.3637 16.6704 40.1805 16.0885 39.8141C15.5067 39.4477 15.0419 38.957 14.6941 38.3419C14.3526 37.7203 14.1818 37.0432 14.1818 36.3104L14.2198 26.2604C14.2198 26.208 14.245 26.1819 14.2957 26.1819H16.4775C16.5281 26.1819 16.5534 26.208 16.5534 26.2604V36.3104C16.5534 36.7618 16.6925 37.1478 16.9708 37.4685C17.249 37.7825 17.5873 37.9395 17.9858 37.9395C18.4032 37.9395 18.751 37.7825 19.0292 37.4685C19.3075 37.1478 19.4466 36.7618 19.4466 36.3104V26.2604C19.4466 26.208 19.4719 26.1819 19.5225 26.1819H21.7043C21.755 26.1819 21.7802 26.208 21.7802 26.2604L21.8182 36.3104C21.8182 37.0497 21.6474 37.7302 21.3059 38.3517C20.9581 38.9668 20.4965 39.4575 19.9209 39.8239C19.3454 40.1838 18.7004 40.3637 17.9858 40.3637Z" fill="#3C0061"/>
<mask id="mask0_194_1789" style="mask-type:luminance" maskUnits="userSpaceOnUse" x="24" y="23" width="21" height="2">
<path d="M44.25 23.2546H24V24.0046H44.25V23.2546Z" fill="white"/>
</mask>
<g mask="url(#mask0_194_1789)">
<path d="M24 23.2546C24 23.5047 24 23.7547 24 24.0046C24.3375 23.9984 24.675 23.9922 25.0125 23.9859C31.0875 23.8734 37.1625 23.7609 43.2375 23.6484C43.575 23.6422 43.9125 23.6359 44.25 23.6296C43.9125 23.6234 43.575 23.6172 43.2375 23.6109C37.1625 23.4984 31.0875 23.3859 25.0125 23.2734C24.675 23.2672 24.3375 23.2609 24 23.2546Z" fill="#3C0061"/>
</g>
<mask id="mask1_194_1789" style="mask-type:luminance" maskUnits="userSpaceOnUse" x="3" y="23" width="21" height="1">
<path d="M24 23.25H3.75V24H24V23.25Z" fill="white"/>
</mask>
<g mask="url(#mask1_194_1789)">
<path d="M24 24C24 23.75 24 23.5 24 23.25C23.6625 23.2562 23.325 23.2625 22.9875 23.2687C16.9125 23.3812 10.8375 23.4938 4.7625 23.6063C4.425 23.6125 4.0875 23.6188 3.75 23.625C4.0875 23.6312 4.425 23.6375 4.7625 23.6437C10.8375 23.7562 16.9125 23.8688 22.9875 23.9813C23.325 23.9875 23.6625 23.9938 24 24Z" fill="#3C0061"/>
</g>
</g>
<defs>
<clipPath id="clip0_194_1789">
<rect width="48" height="48" fill="white"/>
</clipPath>
</defs>
</svg>
